<?xml version="1.0" encoding="UTF-8" standalone="no"?>
<!-- Created with Inkscape (http://www.inkscape.org/) -->

<svg
   xmlns:dc="http://purl.org/dc/elements/1.1/"
   xmlns:cc="http://creativecommons.org/ns#"
   xmlns:rdf="http://www.w3.org/1999/02/22-rdf-syntax-ns#"
   xmlns:svg="http://www.w3.org/2000/svg"
   xmlns="http://www.w3.org/2000/svg"
   xmlns:sodipodi="http://sodipodi.sourceforge.net/DTD/sodipodi-0.dtd"
   xmlns:inkscape="http://www.inkscape.org/namespaces/inkscape"
   id="svg3374"
   version="1.1"
   inkscape:version="0.91 r13725"
   xml:space="preserve"
   width="743"
   height="253.75"
   viewBox="0 0 743 253.75"
   sodipodi:docname="MPI_Scatter.svg"><metadata
     id="metadata3380"><rdf:RDF><cc:Work
         rdf:about=""><dc:format>image/svg+xml</dc:format><dc:type
           rdf:resource="http://purl.org/dc/dcmitype/StillImage" /><dc:title></dc:title></cc:Work></rdf:RDF></metadata><defs
     id="defs3378" /><sodipodi:namedview
     pagecolor="#ffffff"
     bordercolor="#666666"
     borderopacity="1"
     objecttolerance="10"
     gridtolerance="10"
     guidetolerance="10"
     inkscape:pageopacity="0"
     inkscape:pageshadow="2"
     inkscape:window-width="1280"
     inkscape:window-height="712"
     id="namedview3376"
     showgrid="false"
     inkscape:zoom="1.5354622"
     inkscape:cx="560.09194"
     inkscape:cy="48.722636"
     inkscape:window-x="135"
     inkscape:window-y="98"
     inkscape:window-maximized="0"
     inkscape:current-layer="g3382"
     showguides="true"
     inkscape:guide-bbox="true"><sodipodi:guide
       position="110.06458,276.78962"
       orientation="1,0"
       id="guide5467" /><sodipodi:guide
       position="310.00438,172.58647"
       orientation="1,0"
       id="guide5469" /><sodipodi:guide
       position="510.59544,160.86361"
       orientation="1,0"
       id="guide5471" /><sodipodi:guide
       position="710.53524,148.48949"
       orientation="1,0"
       id="guide5473" /><sodipodi:guide
       position="87.921409,35.168564"
       orientation="0,1"
       id="guide5475" /></sodipodi:namedview><g
     id="g3382"
     inkscape:groupmode="layer"
     inkscape:label="MPI_Gather"
     transform="matrix(1.25,0,0,-1.25,0,901.875)"><g
       id="g3384"><path
         d="m 320,680 c 0,22.091 -17.909,40 -40,40 -22.091,0 -40,-17.909 -40,-40 0,-22.091 17.909,-40 40,-40 22.091,0 40,17.909 40,40"
         style="fill:none;stroke:#000000;stroke-width:2;stroke-linecap:butt;stroke-linejoin:round;stroke-miterlimit:10;stroke-dasharray:none;stroke-opacity:1"
         id="path3386"
         inkscape:connector-curvature="0" /></g><g
       id="g3388"><path
         d="m 80,560 c 0,22.091 -17.9086,40 -40,40 -22.0914,0 -40,-17.909 -40,-40 0,-22.091 17.9086,-40 40,-40 22.0914,0 40,17.909 40,40"
         style="fill:none;stroke:#000000;stroke-width:2;stroke-linecap:butt;stroke-linejoin:round;stroke-miterlimit:10;stroke-dasharray:none;stroke-opacity:1"
         id="path3390"
         inkscape:connector-curvature="0" /></g><g
       id="g3392"><path
         d="m 240,560 c 0,22.091 -17.909,40 -40,40 -22.091,0 -40,-17.909 -40,-40 0,-22.091 17.909,-40 40,-40 22.091,0 40,17.909 40,40"
         style="fill:none;stroke:#000000;stroke-width:2;stroke-linecap:butt;stroke-linejoin:round;stroke-miterlimit:10;stroke-dasharray:none;stroke-opacity:1"
         id="path3394"
         inkscape:connector-curvature="0" /></g><g
       id="g3396"><path
         d="m 400,560 c 0,22.091 -17.909,40 -40,40 -22.091,0 -40,-17.909 -40,-40 0,-22.091 17.909,-40 40,-40 22.091,0 40,17.909 40,40"
         style="fill:none;stroke:#000000;stroke-width:2;stroke-linecap:butt;stroke-linejoin:round;stroke-miterlimit:10;stroke-dasharray:none;stroke-opacity:1"
         id="path3398"
         inkscape:connector-curvature="0" /></g><g
       id="g3400"><path
         d="m 560,560 c 0,22.091 -17.909,40 -40,40 -22.091,0 -40,-17.909 -40,-40 0,-22.091 17.909,-40 40,-40 22.091,0 40,17.909 40,40"
         style="fill:none;stroke:#000000;stroke-width:2;stroke-linecap:butt;stroke-linejoin:round;stroke-miterlimit:10;stroke-dasharray:none;stroke-opacity:1"
         id="path3402"
         inkscape:connector-curvature="0" /></g><g
       id="g3404"><path
         d="m 296,644 44,-48"
         style="fill:#ffffff;fill-opacity:1;fill-rule:evenodd;stroke:#000000;stroke-width:2;stroke-linecap:butt;stroke-linejoin:round;stroke-miterlimit:10;stroke-dasharray:none;stroke-opacity:1"
         id="path3406"
         inkscape:connector-curvature="0" /><g
         id="g3408"><g
           id="g3410"><path
             d="m 340,596 -3.012,6.735 -3.436,-3.15 L 340,596 Z"
             style="fill:#000000;fill-opacity:1;fill-rule:evenodd;stroke:#000000;stroke-width:2;stroke-linecap:butt;stroke-linejoin:round;stroke-miterlimit:10;stroke-dasharray:none;stroke-opacity:1"
             id="path3412"
             inkscape:connector-curvature="0" /></g></g></g><g
       id="g3414"><path
         d="M 240,672 64,592"
         style="fill:#ffffff;fill-opacity:1;fill-rule:evenodd;stroke:#000000;stroke-width:2;stroke-linecap:butt;stroke-linejoin:round;stroke-miterlimit:10;stroke-dasharray:none;stroke-opacity:1"
         id="path3416"
         inkscape:connector-curvature="0" /><g
         id="g3418"><g
           id="g3420"><path
             d="m 64,592 7.3371,0.775 -1.9291,4.244 L 64,592 Z"
             style="fill:#000000;fill-opacity:1;fill-rule:evenodd;stroke:#000000;stroke-width:2;stroke-linecap:butt;stroke-linejoin:round;stroke-miterlimit:10;stroke-dasharray:none;stroke-opacity:1"
             id="path3422"
             inkscape:connector-curvature="0" /></g></g></g><g
       id="g3424"><path
         d="M 320,672 496,592"
         style="fill:none;stroke:#000000;stroke-width:2;stroke-linecap:butt;stroke-linejoin:round;stroke-miterlimit:10;stroke-dasharray:none;stroke-opacity:1"
         id="path3426"
         inkscape:connector-curvature="0" /><g
         id="g3428"><g
           id="g3430"><path
             d="m 496,592 -5.408,5.019 -1.929,-4.244 L 496,592 Z"
             style="fill:#000000;fill-opacity:1;fill-rule:evenodd;stroke:#000000;stroke-width:2;stroke-linecap:butt;stroke-linejoin:round;stroke-miterlimit:10;stroke-dasharray:none;stroke-opacity:1"
             id="path3432"
             inkscape:connector-curvature="0" /></g></g></g><g
       id="g3434"><path
         d="M 260,644 220,596"
         style="fill:none;stroke:#000000;stroke-width:2;stroke-linecap:butt;stroke-linejoin:round;stroke-miterlimit:10;stroke-dasharray:none;stroke-opacity:1"
         id="path3436"
         inkscape:connector-curvature="0" /><g
         id="g3438"><g
           id="g3440"><path
             d="m 220,596 6.272,3.885 -3.581,2.985 L 220,596 Z"
             style="fill:#000000;fill-opacity:1;fill-rule:evenodd;stroke:#000000;stroke-width:2;stroke-linecap:butt;stroke-linejoin:round;stroke-miterlimit:10;stroke-dasharray:none;stroke-opacity:1"
             id="path3442"
             inkscape:connector-curvature="0" /></g></g></g><g
       id="g3444"
       transform="translate(0.52101576,0)"><path
         d="m 384,696 0,-24 24,0 0,24 -24,0 z"
         style="fill:#ff0000;fill-opacity:1;fill-rule:evenodd;stroke:#000000;stroke-width:0.40000001;stroke-linecap:butt;stroke-linejoin:round;stroke-miterlimit:10;stroke-dasharray:none;stroke-opacity:1"
         id="path3446"
         inkscape:connector-curvature="0" /></g><g
       id="g3448"
       transform="translate(0.2,0)"><path
         d="m 408,696 0,-24 24,0 0,24 -24,0 z"
         style="fill:#00ff00;fill-opacity:1;fill-rule:evenodd;stroke:#000000;stroke-width:0.40000001;stroke-linecap:butt;stroke-linejoin:round;stroke-miterlimit:10;stroke-dasharray:none;stroke-opacity:1"
         id="path3450"
         inkscape:connector-curvature="0" /></g><g
       id="g3452"
       transform="translate(0.2,0)"><path
         d="m 432,696 0,-24 24,0 0,24 -24,0 z"
         style="fill:#0000ff;fill-opacity:1;fill-rule:evenodd;stroke:#000000;stroke-width:0.40000001;stroke-linecap:butt;stroke-linejoin:round;stroke-miterlimit:10;stroke-dasharray:none;stroke-opacity:1"
         id="path3454"
         inkscape:connector-curvature="0" /></g><g
       id="g3456"
       transform="translate(0.2,0)"><path
         d="m 456,696 0,-24 24,0 0,24 -24,0 z"
         style="fill:#40e0d0;fill-opacity:1;fill-rule:evenodd;stroke:#000000;stroke-width:0.40000001;stroke-linecap:butt;stroke-linejoin:round;stroke-miterlimit:10;stroke-dasharray:none;stroke-opacity:1"
         id="path3458"
         inkscape:connector-curvature="0" /></g><g
       id="g3460"
       transform="translate(-7,1.9)"><path
         d="m 96,568 0,-24 24,0 0,24 -24,0 z"
         style="fill:#ff0000;fill-opacity:1;fill-rule:evenodd;stroke:#000000;stroke-width:0.40000001;stroke-linecap:butt;stroke-linejoin:round;stroke-miterlimit:10;stroke-dasharray:none;stroke-opacity:1"
         id="path3462"
         inkscape:connector-curvature="0" /></g><g
       id="g3464"
       transform="translate(-7.8,1.9)"><path
         d="m 256,568 0,-24 24,0 0,24 -24,0 z"
         style="fill:#00ff00;fill-opacity:1;fill-rule:evenodd;stroke:#000000;stroke-width:0.40000001;stroke-linecap:butt;stroke-linejoin:round;stroke-miterlimit:10;stroke-dasharray:none;stroke-opacity:1"
         id="path3466"
         inkscape:connector-curvature="0" /></g><g
       id="g3468"
       transform="translate(-7.8,1.9)"><path
         d="m 416,568 0,-24 24,0 0,24 -24,0 z"
         style="fill:#0000ff;fill-opacity:1;fill-rule:evenodd;stroke:#000000;stroke-width:0.40000001;stroke-linecap:butt;stroke-linejoin:round;stroke-miterlimit:10;stroke-dasharray:none;stroke-opacity:1"
         id="path3470"
         inkscape:connector-curvature="0" /></g><g
       id="g3472"
       transform="translate(-7.8,1.9)"><path
         d="m 576,568 0,-24 24,0 0,24 -24,0 z"
         style="fill:#40e0d0;fill-opacity:1;fill-rule:evenodd;stroke:#000000;stroke-width:0.40000001;stroke-linecap:butt;stroke-linejoin:round;stroke-miterlimit:10;stroke-dasharray:none;stroke-opacity:1"
         id="path3474"
         inkscape:connector-curvature="0" /></g><g
       id="g3476"
       transform="translate(272.87391,671.2268)"><g
         id="g3478"
         transform="translate(0,-776.022)"><text
           transform="matrix(1,0,0,-1,0,776.022)"
           style="font-variant:normal;font-weight:normal;font-size:24.78709984px;font-family:CMR17;-inkscape-font-specification:CMR17;writing-mode:lr-tb;fill:#000000;fill-opacity:1;fill-rule:nonzero;stroke:none"
           id="text3480"><tspan
             x="0"
             y="0"
             id="tspan3482">0</tspan></text>
</g></g><g
       id="g3484"
       transform="translate(32,554)"><g
         id="g3486"
         transform="translate(0,-776.022)"><text
           transform="matrix(1,0,0,-1,0,776.022)"
           style="font-variant:normal;font-weight:normal;font-size:24.78709984px;font-family:CMR17;-inkscape-font-specification:CMR17;writing-mode:lr-tb;fill:#000000;fill-opacity:1;fill-rule:nonzero;stroke:none"
           id="text3488"><tspan
             x="0"
             y="0"
             id="tspan3490">0</tspan></text>
</g></g><g
       id="g3492"
       transform="translate(194,554)"><g
         id="g3494"
         transform="translate(0,-776.022)"><text
           transform="matrix(1,0,0,-1,0,776.022)"
           style="font-variant:normal;font-weight:normal;font-size:24.78709984px;font-family:CMR17;-inkscape-font-specification:CMR17;writing-mode:lr-tb;fill:#000000;fill-opacity:1;fill-rule:nonzero;stroke:none"
           id="text3496"><tspan
             x="0"
             y="0"
             id="tspan3498">1</tspan></text>
</g></g><g
       id="g3500"
       transform="translate(516,554)"><g
         id="g3502"
         transform="translate(0,-776.022)"><text
           transform="matrix(1,0,0,-1,0,776.022)"
           style="font-variant:normal;font-weight:normal;font-size:24.78709984px;font-family:CMR17;-inkscape-font-specification:CMR17;writing-mode:lr-tb;fill:#000000;fill-opacity:1;fill-rule:nonzero;stroke:none"
           id="text3504"><tspan
             x="0"
             y="0"
             id="tspan3506">3</tspan></text>
</g></g><g
       id="g3508"
       transform="translate(354,554)"><g
         id="g3510"
         transform="translate(0,-776.022)"><text
           transform="matrix(1,0,0,-1,0,776.022)"
           style="font-variant:normal;font-weight:normal;font-size:24.78709984px;font-family:CMR17;-inkscape-font-specification:CMR17;writing-mode:lr-tb;fill:#000000;fill-opacity:1;fill-rule:nonzero;stroke:none"
           id="text3512"><tspan
             x="0"
             y="0"
             id="tspan3514">2</tspan></text>
</g></g></g></svg>